<svg id="Layer_1" data-name="Layer 1" xmlns="http://www.w3.org/2000/svg" viewBox="0 0 99.38 75.62"><defs><style>.cls-1,.cls-2,.cls-3,.cls-4,.cls-6,.cls-7{isolation:isolate;}.cls-2,.cls-3{font-size:7.31px;font-family:Corbel-Italic, Corbel;font-style:italic;}.cls-3{letter-spacing:-0.06em;}.cls-4{font-size:9.75px;font-family:Corbel-Bold, Corbel;font-weight:700;}.cls-5{fill:none;stroke:#000;stroke-miterlimit:10;stroke-width:0.75px;}.cls-6{font-size:18.68px;}.cls-6,.cls-7{font-family:Corbel;}.cls-7{font-size:18.63px;}</style></defs><title>a.kieths_puma_logo</title><g id="A.Keiths_Puma_Logo" data-name="A.Keiths Puma Logo"><g class="cls-1"><text class="cls-2" transform="translate(35.48 49.25) scale(0.98 1)">ES</text><text class="cls-3" transform="translate(42.93 49.25) scale(0.98 1)">T</text><text class="cls-2" transform="translate(45.9 49.25) scale(0.98 1)">. 1948</text></g><text class="cls-4" transform="translate(14.41 37.36) scale(0.98 1)">SPEED-ORBITER</text><path id="right_antler" data-name="right antler" class="cls-5" d="M54,82.46S52.86,82,52.86,83.8v2.86a1,1,0,0,0,.74,1.21,1.08,1.08,0,0,0,.4,0s24-1.88,37-27.31c0,0,0-.91,1.52-2,0,0,5.19-3.48,6.8-11.7V37.35s-.1-4.63-1.12,0c0,0-.64,9.93-5.14,15.42,0,0-2.3,2.87-1.32-.61,0,0,2.25-14.38,0-24.74,0,0-1.71-7.62-5.62-13.22,0,0-3.38-3.91-1,2.56,0,0,3.08,6.34,3.27,10a22.56,22.56,0,0,1,0,5.92,1.39,1.39,0,0,1-2.3.19,32.54,32.54,0,0,1-5-5.61s-4.35-4.67-1.27,2.17c0,0,3.24,6.25,8,10,0,0,.93,10.36,0,13.58a27.87,27.87,0,0,1-4.2,10.72,45.17,45.17,0,0,0,.14-9.08s-1-3.29-1.61.07c0,0,0,18.58-15.7,23.4,0,0-3.13,1.4-1.47-1.21a12.6,12.6,0,0,1,2.59-3.6s1.77-3.29-2.1-.72a34.67,34.67,0,0,0-4.85,8.1,3.77,3.77,0,0,1-2,1.71Z" transform="translate(-0.31 -12.65)"/><path id="left_antler" data-name="left antler" class="cls-5" d="M43,82.46s1-.49,1,1.34v2.86a1,1,0,0,1-.76,1.2l-.24,0S20.52,86,8.44,60.57c0,0,0-.91-1.41-2,0,0-4.84-3.48-6.34-11.7V37.35s.09-4.63,1.05,0c0,0,.58,9.93,4.78,15.42,0,0,2.14,2.87,1.23-.61,0,0-2.1-14.38,0-24.74,0,0,1.59-7.62,5.24-13.22,0,0,3.14-3.91.91,2.56,0,0-2.87,6.34-3.05,10a23.46,23.46,0,0,0,0,5.92,1.24,1.24,0,0,0,1.65.6,1.29,1.29,0,0,0,.49-.41,32.19,32.19,0,0,0,4.6-5.61s4.05-4.67,1.18,2.17c0,0-3,6.25-7.43,10,0,0-.86,10.36,0,13.58a29.2,29.2,0,0,0,3.93,10.72,46.7,46.7,0,0,1-.13-9.08s.95-3.29,1.5.07c0,0,0,18.58,14.63,23.4,0,0,2.92,1.4,1.37-1.21a13.05,13.05,0,0,0-2.41-3.6S28.58,70,32.18,72.6a35.31,35.31,0,0,1,4.51,8.1s.77,1.47,1.87,1.71Z" transform="translate(-0.31 -12.65)"/></g><text class="cls-6" transform="translate(34.29 25.81) rotate(-25.28) scale(0.49 1)">-</text><text class="cls-6" transform="translate(38.27 23.96) rotate(-15.69) scale(0.49 1)">P</text><text class="cls-7" transform="matrix(0.49, -0.06, 0.12, 0.99, 42.86, 22.6)">U</text><text class="cls-6" transform="matrix(0.49, 0.04, -0.07, 1, 48.41, 21.8)">M</text><text class="cls-6" transform="translate(55.33 22.33) rotate(15.2) scale(0.49 1)">A</text><text class="cls-6" transform="translate(62.17 24.44) rotate(25.22) scale(0.49 1)">-</text></svg>