<?xml version="1.0" encoding="utf-8"?>
<!-- Generator: Adobe Illustrator 23.0.1, SVG Export Plug-In . SVG Version: 6.00 Build 0)  -->
<svg version="1.1" id="A.Keiths_x5F_Puma_x5F_Logo" xmlns="http://www.w3.org/2000/svg" xmlns:xlink="http://www.w3.org/1999/xlink"
	 x="0px" y="0px" viewBox="0 0 100 100" style="enable-background:new 0 0 100 100;" xml:space="preserve">
<style type="text/css">
	.st0{font-family:'CorbelLight-Italic';}
	.st1{font-size:7.0449px;}
	.st2{fill:none;}
	.st3{font-family:'Corbel-Bold';}
	.st4{font-size:9.3932px;}
	.st5{fill:none;stroke:#000000;stroke-width:0.75;stroke-miterlimit:10;}
</style>
<text transform="matrix(1 0 0 1 35.9712 61.0198)" class="st0 st1">EST. 1948</text>
<path id="SVGID_x5F_1_x5F_" class="st2" d="M27.75,38.61c0,0,21.13-15.59,44.62,0.85"/>
<text><textPath  xlink:href="#SVGID_x5F_1_x5F_" startOffset="32.6172%">
<tspan  class="st4" style="font-family:'CorbelLight';">- PUMA -</tspan></textPath>
</text>
<text transform="matrix(1 0 0 1 15.189 49.571)" class="st3 st4">SPEED-ORBITER</text>
<path id="right_antler" class="st5" d="M53.92,80.83c0,0-1.11-0.47-1.11,1.29v2.76c0,0-0.24,1.17,1.11,1.17
	c0,0,23.75-1.82,36.54-26.31c0,0-0.05-0.88,1.5-1.88c0,0,5.12-3.35,6.71-11.27v-9.22c0,0-0.1-4.46-1.11,0c0,0-0.63,9.57-5.07,14.86
	c0,0-2.27,2.76-1.3-0.59c0,0,2.22-13.86,0-23.84c0,0-1.69-7.34-5.55-12.74c0,0-3.33-3.76-0.97,2.47c0,0,3.04,6.11,3.23,9.63
	c0,0,0.48,3.76,0,5.7c0,0-0.92,1.47-2.27,0.18c0,0-2.94-2.52-4.88-5.4c0,0-4.3-4.5-1.26,2.09c0,0,3.2,6.02,7.87,9.65
	c0,0,0.92,9.98,0,13.09c0,0-0.77,5.52-4.15,10.33c0,0,0.58-4.05,0.14-8.75c0,0-1.01-3.17-1.59,0.06c0,0,0,17.91-15.49,22.55
	c0,0-3.09,1.35-1.45-1.17c0,0,1.16-2.35,2.56-3.46c0,0,1.74-3.17-2.08-0.7c0,0-3.28,3.93-4.78,7.81c0,0-0.82,1.41-1.98,1.64
	L53.92,80.83z"/>
<path id="left_antler" class="st5" d="M43.04,80.83c0,0,1.03-0.47,1.03,1.29v2.76c0,0,0.22,1.17-1.03,1.17
	c0,0-22.14-1.82-34.06-26.31c0,0,0.04-0.88-1.39-1.88c0,0-4.77-3.35-6.25-11.27v-9.22c0,0,0.09-4.46,1.03,0
	c0,0,0.58,9.57,4.72,14.86c0,0,2.11,2.76,1.21-0.59c0,0-2.07-13.86,0-23.84c0,0,1.57-7.34,5.17-12.74c0,0,3.1-3.76,0.9,2.47
	c0,0-2.83,6.11-3.01,9.63c0,0-0.45,3.76,0,5.7c0,0,0.85,1.47,2.11,0.18c0,0,2.74-2.52,4.54-5.4c0,0,4-4.5,1.17,2.09
	c0,0-2.98,6.02-7.33,9.65c0,0-0.85,9.98,0,13.09c0,0,0.72,5.52,3.87,10.33c0,0-0.54-4.05-0.13-8.75c0,0,0.94-3.17,1.48,0.06
	c0,0,0,17.91,14.44,22.55c0,0,2.88,1.35,1.35-1.17c0,0-1.08-2.35-2.38-3.46c0,0-1.62-3.17,1.93-0.7c0,0,3.06,3.93,4.45,7.81
	c0,0,0.76,1.41,1.84,1.64L43.04,80.83z"/>
</svg>
