<svg xmlns="http://www.w3.org/2000/svg" viewBox="0 0 100 100"><defs><style>.cls-1,.cls-4{isolation:isolate;}.cls-1{font-size:7.31px;font-family:CorbelLight-Italic, Corbel;font-style:italic;}.cls-2{letter-spacing:-0.06em;}.cls-3{font-size:12.45px;font-family:ArialMT, Arial;}.cls-4{font-size:9.75px;font-family:Corbel-Bold, Corbel;font-weight:700;}.cls-5{fill:none;stroke:#000;stroke-miterlimit:10;stroke-width:0.75px;}.cls-6{font-size:18.68px;font-family:Corbel;}</style></defs><title>Artboard 1</title><g id="A.Keiths_Puma_Logo"><text class="cls-1" transform="translate(35.79 61.9) scale(0.98 1)">ES<tspan class="cls-2" x="7.61" y="0">T</tspan><tspan x="10.64" y="0">. 1948</tspan></text><text class="cls-3" transform="translate(-0.66 -1.44) scale(0.98 1)"> </text><text class="cls-4" transform="translate(14.73 50.01) scale(0.98 1)">SPEED-ORBITER</text><path id="right_antler" data-name="right antler" class="cls-5" d="M54,82.46S52.86,82,52.86,83.8v2.86A1,1,0,0,0,54,87.88S78.05,86,91,60.57c0,0-.05-.91,1.52-2,0,0,5.19-3.48,6.8-11.7V37.35s-.1-4.63-1.12,0c0,0-.64,9.93-5.14,15.42,0,0-2.3,2.87-1.32-.61,0,0,2.25-14.38,0-24.74,0,0-1.71-7.62-5.62-13.22,0,0-3.38-3.91-1,2.56,0,0,3.08,6.34,3.27,10a22.4,22.4,0,0,1,0,5.92,1.38,1.38,0,0,1-2.3.19,32.65,32.65,0,0,1-5-5.61s-4.35-4.67-1.27,2.17c0,0,3.24,6.25,8,10,0,0,.93,10.36,0,13.58a28,28,0,0,1-4.2,10.72,44.85,44.85,0,0,0,.14-9.08s-1-3.29-1.61.07c0,0,0,18.58-15.7,23.4,0,0-3.13,1.4-1.47-1.21a12.66,12.66,0,0,1,2.59-3.6s1.77-3.29-2.1-.72a34.81,34.81,0,0,0-4.85,8.1,3.76,3.76,0,0,1-2,1.71Z"/><path id="left_antler" data-name="left antler" class="cls-5" d="M43,82.46s1-.49,1,1.34v2.86a1,1,0,0,1-1,1.22S20.52,86,8.44,60.57c0,0,0-.91-1.41-2,0,0-4.84-3.48-6.34-11.7V37.35s.09-4.63,1.05,0c0,0,.58,9.93,4.78,15.42,0,0,2.14,2.87,1.23-.61,0,0-2.1-14.38,0-24.74,0,0,1.59-7.62,5.24-13.22,0,0,3.14-3.91.91,2.56,0,0-2.87,6.34-3.05,10a23.85,23.85,0,0,0,0,5.92,1.24,1.24,0,0,0,2.14.19,31.91,31.91,0,0,0,4.6-5.61s4.05-4.67,1.18,2.17c0,0-3,6.25-7.43,10,0,0-.86,10.36,0,13.58a29.21,29.21,0,0,0,3.93,10.72,47.15,47.15,0,0,1-.13-9.08s.95-3.29,1.5.07c0,0,0,18.58,14.63,23.4,0,0,2.92,1.4,1.37-1.21a13,13,0,0,0-2.41-3.6S28.58,70,32.18,72.6a35.19,35.19,0,0,1,4.51,8.1s.77,1.47,1.87,1.71Z"/></g><g id="Layer_2" data-name="Layer 2"><text/><text class="cls-6" transform="translate(34.6 38.46) rotate(-25.28) scale(0.49 1)">-</text><text class="cls-6" transform="matrix(0.46, -0.18, 0.36, 0.93, 37.18, 37.26)"> </text><text class="cls-6" transform="translate(38.58 36.61) rotate(-15.69) scale(0.49 1)">P</text><text class="cls-6" transform="matrix(0.49, -0.06, 0.12, 0.99, 43.17, 35.25)">U</text><text class="cls-6" transform="translate(48.73 34.45) rotate(4.18) scale(0.49 1)">M</text><text class="cls-6" transform="translate(55.65 34.98) rotate(15.2) scale(0.49 1)">A</text><text class="cls-6" transform="translate(60.93 36.51) rotate(21.4) scale(0.49 1)"> </text><text class="cls-6" transform="translate(62.48 37.09) rotate(25.22) scale(0.49 1)">-</text></g></svg>